{
    "asset" : {
        "generator" : "Khronos glTF Blender I/O v3.2.43",
        "version" : "2.0"
    },
    "scene" : 0,
    "scenes" : [
        {
            "name" : "Scene",
            "nodes" : [
                9
            ]
        }
    ],
    "nodes" : [
        {
            "mesh" : 0,
            "name" : "Cube.001",
            "rotation" : [
                1,
                0,
                0,
                6.123234262925839e-17
            ],
            "translation" : [
                -0.5491257309913635,
                95.1849365234375,
                -2.5699782371520996
            ]
        },
        {
            "mesh" : 1,
            "name" : "Cube_2",
            "translation" : [
                0,
                7.62939453125e-06,
                0
            ]
        },
        {
            "mesh" : 2,
            "name" : "Cube_3",
            "translation" : [
                -41.370506286621094,
                4269.6337890625,
                -1.24627685546875
            ]
        },
        {
            "children" : [
                1,
                2
            ],
            "mesh" : 3,
            "name" : "Cube",
            "translation" : [
                2407.292236328125,
                -4144.06201171875,
                8083.9736328125
            ]
        },
        {
            "name" : "Node_9",
            "translation" : [
                0.0007884640945121646,
                -0.00048828125,
                -56.33349609375
            ]
        },
        {
            "children" : [
                4
            ],
            "name" : "Directional_Light",
            "rotation" : [
                -0.40628406405448914,
                0.12301294505596161,
                -0.26237887144088745,
                0.8665785789489746
            ],
            "translation" : [
                11266.861328125,
                16900.29296875,
                16900.29296875
            ]
        },
        {
            "name" : "Node_10",
            "translation" : [
                2853.3115234375,
                -1788.745849609375,
                56334.3046875
            ]
        },
        {
            "children" : [
                3,
                5,
                6
            ],
            "name" : "Node_4",
            "scale" : [
                0.009999999776482582,
                0.009999999776482582,
                0.009999999776482582
            ],
            "translation" : [
                0,
                0,
                -7.62939453125e-06
            ]
        },
        {
            "children" : [
                7
            ],
            "name" : "test",
            "translation" : [
                -24,
                40.66825866699219,
                -83.93061828613281
            ]
        },
        {
            "children" : [
                0,
                8
            ],
            "name" : "Node_0",
            "scale" : [
                0.009999999776482582,
                0.009999999776482582,
                0.009999999776482582
            ]
        }
    ],
    "materials" : [
        {
            "doubleSided" : true,
            "name" : "Material.006",
            "pbrMetallicRoughness" : {
                "baseColorTexture" : {
                    "index" : 0
                },
                "metallicFactor" : 0,
                "roughnessFactor" : 0.5
            }
        },
        {
            "doubleSided" : true,
            "name" : "Material.009",
            "pbrMetallicRoughness" : {
                "baseColorTexture" : {
                    "index" : 1
                },
                "metallicFactor" : 0,
                "roughnessFactor" : 0.5
            }
        },
        {
            "doubleSided" : true,
            "name" : "Material.007",
            "pbrMetallicRoughness" : {
                "baseColorTexture" : {
                    "index" : 2
                },
                "metallicFactor" : 0,
                "roughnessFactor" : 0.5
            }
        },
        {
            "doubleSided" : true,
            "name" : "Material.008",
            "pbrMetallicRoughness" : {
                "baseColorTexture" : {
                    "index" : 3
                },
                "metallicFactor" : 0,
                "roughnessFactor" : 0.5
            }
        }
    ],
    "meshes" : [
        {
            "name" : "Mesh_3",
            "primitives" : [
                {
                    "attributes" : {
                        "POSITION" : 0,
                        "NORMAL" : 1
                    },
                    "indices" : 2,
                    "material" : 0
                }
            ]
        },
        {
            "name" : "Mesh_2",
            "primitives" : [
                {
                    "attributes" : {
                        "POSITION" : 3,
                        "NORMAL" : 4,
                        "TEXCOORD_0" : 5
                    },
                    "indices" : 6,
                    "material" : 1
                }
            ]
        },
        {
            "name" : "Mesh_1",
            "primitives" : [
                {
                    "attributes" : {
                        "POSITION" : 7,
                        "NORMAL" : 8,
                        "TEXCOORD_0" : 9
                    },
                    "indices" : 6,
                    "material" : 2
                }
            ]
        },
        {
            "name" : "Mesh_0",
            "primitives" : [
                {
                    "attributes" : {
                        "POSITION" : 10,
                        "NORMAL" : 11,
                        "TEXCOORD_0" : 12
                    },
                    "indices" : 6,
                    "material" : 3
                }
            ]
        }
    ],
    "textures" : [
        {
            "sampler" : 0,
            "source" : 0
        },
        {
            "sampler" : 0,
            "source" : 1
        },
        {
            "sampler" : 0,
            "source" : 0
        },
        {
            "sampler" : 0,
            "source" : 0
        }
    ],
    "images" : [
        {
            "bufferView" : 3,
            "mimeType" : "image/png",
            "name" : "woodentexture"
        },
        {
            "bufferView" : 8,
            "mimeType" : "image/jpeg",
            "name" : "woodentexture"
        }
    ],
    "accessors" : [
        {
            "bufferView" : 0,
            "componentType" : 5126,
            "count" : 24,
            "max" : [
                20,
                7.5,
                10
            ],
            "min" : [
                -20,
                -7.5,
                -10
            ],
            "type" : "VEC3"
        },
        {
            "bufferView" : 1,
            "componentType" : 5126,
            "count" : 24,
            "type" : "VEC3"
        },
        {
            "bufferView" : 2,
            "componentType" : 5123,
            "count" : 36,
            "type" : "SCALAR"
        },
        {
            "bufferView" : 4,
            "componentType" : 5126,
            "count" : 24,
            "max" : [
                5633.4306640625,
                845.0146484375,
                5633.4306640625
            ],
            "min" : [
                -5633.4306640625,
                -845.0146484375,
                -5633.4306640625
            ],
            "type" : "VEC3"
        },
        {
            "bufferView" : 5,
            "componentType" : 5126,
            "count" : 24,
            "type" : "VEC3"
        },
        {
            "bufferView" : 6,
            "componentType" : 5126,
            "count" : 24,
            "type" : "VEC2"
        },
        {
            "bufferView" : 7,
            "componentType" : 5123,
            "count" : 36,
            "type" : "SCALAR"
        },
        {
            "bufferView" : 9,
            "componentType" : 5126,
            "count" : 24,
            "max" : [
                644.9838256835938,
                4885.35107421875,
                521.4583740234375
            ],
            "min" : [
                -644.9838256835938,
                -4885.35107421875,
                -521.4583740234375
            ],
            "type" : "VEC3"
        },
        {
            "bufferView" : 10,
            "componentType" : 5126,
            "count" : 24,
            "type" : "VEC3"
        },
        {
            "bufferView" : 11,
            "componentType" : 5126,
            "count" : 24,
            "type" : "VEC2"
        },
        {
            "bufferView" : 12,
            "componentType" : 5126,
            "count" : 24,
            "max" : [
                5633.4306640625,
                845.0146484375,
                5633.4306640625
            ],
            "min" : [
                -5633.4306640625,
                -845.0146484375,
                -5633.4306640625
            ],
            "type" : "VEC3"
        },
        {
            "bufferView" : 13,
            "componentType" : 5126,
            "count" : 24,
            "type" : "VEC3"
        },
        {
            "bufferView" : 14,
            "componentType" : 5126,
            "count" : 24,
            "type" : "VEC2"
        }
    ],
    "bufferViews" : [
        {
            "buffer" : 0,
            "byteLength" : 288,
            "byteOffset" : 0
        },
        {
            "buffer" : 0,
            "byteLength" : 288,
            "byteOffset" : 288
        },
        {
            "buffer" : 0,
            "byteLength" : 72,
            "byteOffset" : 576
        },
        {
            "buffer" : 0,
            "byteLength" : 1107531,
            "byteOffset" : 648
        },
        {
            "buffer" : 0,
            "byteLength" : 288,
            "byteOffset" : 1108180
        },
        {
            "buffer" : 0,
            "byteLength" : 288,
            "byteOffset" : 1108468
        },
        {
            "buffer" : 0,
            "byteLength" : 192,
            "byteOffset" : 1108756
        },
        {
            "buffer" : 0,
            "byteLength" : 72,
            "byteOffset" : 1108948
        },
        {
            "buffer" : 0,
            "byteLength" : 148642,
            "byteOffset" : 1109020
        },
        {
            "buffer" : 0,
            "byteLength" : 288,
            "byteOffset" : 1257664
        },
        {
            "buffer" : 0,
            "byteLength" : 288,
            "byteOffset" : 1257952
        },
        {
            "buffer" : 0,
            "byteLength" : 192,
            "byteOffset" : 1258240
        },
        {
            "buffer" : 0,
            "byteLength" : 288,
            "byteOffset" : 1258432
        },
        {
            "buffer" : 0,
            "byteLength" : 288,
            "byteOffset" : 1258720
        },
        {
            "buffer" : 0,
            "byteLength" : 192,
            "byteOffset" : 1259008
        }
    ],
    "samplers" : [
        {
            "magFilter" : 9729,
            "minFilter" : 9987
        }
    ],
    "buffers" : [
        {
            "byteLength" : 1259200,
            "uri" : "data:application/octet-stream;base64,"
        }
    ]
}
