{
    "asset" : {
        "generator" : "Khronos glTF Blender I/O v3.2.43",
        "version" : "2.0"
    },
    "scene" : 0,
    "scenes" : [
        {
            "name" : "Scene",
            "nodes" : [
                3
            ]
        }
    ],
    "nodes" : [
        {
            "name" : "Object_2"
        },
        {
            "mesh" : 0,
            "name" : "Object_4"
        },
        {
            "children" : [
                0,
                1
            ],
            "name" : "plant.obj.cleaner.materialmerger.gles"
        },
        {
            "children" : [
                2
            ],
            "name" : "Sketchfab_model",
            "rotation" : [
                -0.7071068286895752,
                0,
                0,
                0.7071067094802856
            ]
        }
    ],
    "materials" : [
        {
            "alphaMode" : "BLEND",
            "doubleSided" : true,
            "name" : "Material.003",
            "pbrMetallicRoughness" : {
                "baseColorTexture" : {
                    "index" : 0
                },
                "metallicFactor" : 0,
                "roughnessFactor" : 0.806350827217102
            }
        }
    ],
    "meshes" : [
        {
            "name" : "Object_2",
            "primitives" : [
                {
                    "attributes" : {
                        "POSITION" : 0,
                        "NORMAL" : 1,
                        "TEXCOORD_0" : 2
                    },
                    "indices" : 3,
                    "material" : 0
                }
            ]
        }
    ],
    "textures" : [
        {
            "sampler" : 0,
            "source" : 0
        }
    ],
    "images" : [
        {
            "bufferView" : 4,
            "mimeType" : "image/png",
            "name" : "Material.001_baseColor"
        }
    ],
    "accessors" : [
        {
            "bufferView" : 0,
            "componentType" : 5126,
            "count" : 5239,
            "max" : [
                5.406620025634766,
                1.9379899501800537,
                6.819435119628906
            ],
            "min" : [
                -3.5144059658050537,
                -4.597403049468994,
                2.2184839248657227
            ],
            "type" : "VEC3"
        },
        {
            "bufferView" : 1,
            "componentType" : 5126,
            "count" : 5239,
            "type" : "VEC3"
        },
        {
            "bufferView" : 2,
            "componentType" : 5126,
            "count" : 5239,
            "type" : "VEC2"
        },
        {
            "bufferView" : 3,
            "componentType" : 5123,
            "count" : 7713,
            "type" : "SCALAR"
        }
    ],
    "bufferViews" : [
        {
            "buffer" : 0,
            "byteLength" : 62868,
            "byteOffset" : 0
        },
        {
            "buffer" : 0,
            "byteLength" : 62868,
            "byteOffset" : 62868
        },
        {
            "buffer" : 0,
            "byteLength" : 41912,
            "byteOffset" : 125736
        },
        {
            "buffer" : 0,
            "byteLength" : 15426,
            "byteOffset" : 167648
        },
        {
            "buffer" : 0,
            "byteLength" : 59600,
            "byteOffset" : 183076
        }
    ],
    "samplers" : [
        {
            "magFilter" : 9729,
            "minFilter" : 9987
        }
    ],
    "buffers" : [
        {
            "byteLength" : 242676,
            "uri" : "data:application/octet-stream;base64,"
        }
    ]
}
