{
    "asset" : {
        "generator" : "Khronos glTF Blender I/O v3.2.43",
        "version" : "2.0"
    },
    "scene" : 0,
    "scenes" : [
        {
            "name" : "Scene",
            "nodes" : [
                1,
                3,
                5,
                6,
                7,
                15
            ]
        }
    ],
    "nodes" : [
        {
            "mesh" : 0,
            "name" : "polySurface60_Leaves1_0"
        },
        {
            "children" : [
                0
            ],
            "name" : "polySurface60",
            "scale" : [
                3.1980226039886475,
                3.1980226039886475,
                3.1980226039886475
            ],
            "translation" : [
                77.7514419555664,
                -6.174821376800537,
                49.898197174072266
            ]
        },
        {
            "name" : "Object_27"
        },
        {
            "children" : [
                2
            ],
            "name" : "left",
            "translation" : [
                -1000.0999755859375,
                0,
                0
            ]
        },
        {
            "name" : "Object_29"
        },
        {
            "children" : [
                4
            ],
            "name" : "left1",
            "translation" : [
                -1000.0999755859375,
                0,
                0
            ]
        },
        {
            "name" : "pCube73",
            "translation" : [
                55.575889587402344,
                0,
                -8.987272262573242
            ]
        },
        {
            "name" : "pCube74",
            "translation" : [
                54.728633880615234,
                0,
                -8.987272262573242
            ]
        },
        {
            "name" : "Object_10"
        },
        {
            "children" : [
                8
            ],
            "name" : "Camera",
            "rotation" : [
                -0.17085686326026917,
                0.8566154837608337,
                -0.1058458685874939,
                0.475199431180954
            ],
            "scale" : [
                118.63587188720703,
                118.6358871459961,
                118.63587188720703
            ],
            "translation" : [
                862.93603515625,
                732.9588623046875,
                1384.3646240234375
            ]
        },
        {
            "name" : "flowerpot.002",
            "rotation" : [
                -0.592840313911438,
                0.38540923595428467,
                0.3854093551635742,
                0.592840313911438
            ],
            "scale" : [
                99.99999237060547,
                99.99999237060547,
                99.99999237060547
            ],
            "translation" : [
                -75.59246063232422,
                3.541978120803833,
                0.0151658421382308
            ]
        },
        {
            "mesh" : 1,
            "name" : "pot.002_Material.011_0"
        },
        {
            "children" : [
                11
            ],
            "name" : "pot.002",
            "rotation" : [
                0.5,
                0.5000000596046448,
                -0.4999999403953552,
                0.4999999403953552
            ],
            "scale" : [
                -12.650613784790039,
                -12.650613784790039,
                -12.650613784790039
            ],
            "translation" : [
                29.052627563476562,
                5.029481410980225,
                0
            ]
        },
        {
            "children" : [
                9,
                10,
                12
            ],
            "name" : "RootNode"
        },
        {
            "children" : [
                13
            ],
            "name" : "6d5b099af92d44219cf58ae1ccfd9109.fbx",
            "rotation" : [
                0.7071068286895752,
                0,
                0,
                0.7071067094802856
            ],
            "scale" : [
                0.009999999776482582,
                0.010000000707805157,
                0.010000000707805157
            ]
        },
        {
            "children" : [
                14
            ],
            "name" : "Sketchfab_model",
            "rotation" : [
                -0.7071068286895752,
                0,
                0,
                0.7071067094802856
            ]
        }
    ],
    "materials" : [
        {
            "alphaMode" : "BLEND",
            "doubleSided" : true,
            "emissiveFactor" : [
                1,
                1,
                1
            ],
            "emissiveTexture" : {
                "index" : 0
            },
            "name" : "Leaves1",
            "pbrMetallicRoughness" : {
                "baseColorTexture" : {
                    "index" : 1
                },
                "metallicFactor" : 0,
                "roughnessFactor" : 0.9207483530044556
            }
        },
        {
            "doubleSided" : true,
            "name" : "Material.001",
            "pbrMetallicRoughness" : {
                "baseColorTexture" : {
                    "index" : 2
                },
                "metallicFactor" : 0,
                "roughnessFactor" : 0.5
            }
        }
    ],
    "meshes" : [
        {
            "name" : "polySurface60_Leaves1_0",
            "primitives" : [
                {
                    "attributes" : {
                        "POSITION" : 0,
                        "NORMAL" : 1,
                        "TEXCOORD_0" : 2,
                        "TEXCOORD_1" : 3,
                        "TEXCOORD_2" : 4,
                        "TEXCOORD_3" : 5
                    },
                    "indices" : 6,
                    "material" : 0
                }
            ]
        },
        {
            "name" : "pot.002_Material.011_0",
            "primitives" : [
                {
                    "attributes" : {
                        "POSITION" : 7,
                        "NORMAL" : 8
                    },
                    "indices" : 9,
                    "material" : 1
                }
            ]
        }
    ],
    "textures" : [
        {
            "sampler" : 0,
            "source" : 0
        },
        {
            "sampler" : 0,
            "source" : 1
        },
        {
            "sampler" : 0,
            "source" : 2
        }
    ],
    "images" : [
        {
            "bufferView" : 7,
            "mimeType" : "image/jpeg",
            "name" : "Leaves1_emissive"
        },
        {
            "bufferView" : 8,
            "mimeType" : "image/png",
            "name" : "Leaves1_baseColor"
        },
        {
            "bufferView" : 12,
            "mimeType" : "image/jpeg",
            "name" : "green"
        }
    ],
    "accessors" : [
        {
            "bufferView" : 0,
            "componentType" : 5126,
            "count" : 36,
            "max" : [
                -12.302865982055664,
                2.1064047813415527,
                -9.318893432617188
            ],
            "min" : [
                -13.11140251159668,
                2.074429750442505,
                -10.151518821716309
            ],
            "type" : "VEC3"
        },
        {
            "bufferView" : 1,
            "componentType" : 5126,
            "count" : 36,
            "type" : "VEC3"
        },
        {
            "bufferView" : 2,
            "componentType" : 5126,
            "count" : 36,
            "type" : "VEC2"
        },
        {
            "bufferView" : 3,
            "componentType" : 5126,
            "count" : 36,
            "type" : "VEC2"
        },
        {
            "bufferView" : 4,
            "componentType" : 5126,
            "count" : 36,
            "type" : "VEC2"
        },
        {
            "bufferView" : 5,
            "componentType" : 5126,
            "count" : 36,
            "type" : "VEC2"
        },
        {
            "bufferView" : 6,
            "componentType" : 5123,
            "count" : 72,
            "type" : "SCALAR"
        },
        {
            "bufferView" : 9,
            "componentType" : 5126,
            "count" : 1196,
            "max" : [
                3.337944269180298,
                2.443652391433716,
                7.261876106262207
            ],
            "min" : [
                -3.2943406105041504,
                -3.5771164894104004,
                2.288530111312866
            ],
            "type" : "VEC3"
        },
        {
            "bufferView" : 10,
            "componentType" : 5126,
            "count" : 1196,
            "type" : "VEC3"
        },
        {
            "bufferView" : 11,
            "componentType" : 5123,
            "count" : 1764,
            "type" : "SCALAR"
        }
    ],
    "bufferViews" : [
        {
            "buffer" : 0,
            "byteLength" : 432,
            "byteOffset" : 0
        },
        {
            "buffer" : 0,
            "byteLength" : 432,
            "byteOffset" : 432
        },
        {
            "buffer" : 0,
            "byteLength" : 288,
            "byteOffset" : 864
        },
        {
            "buffer" : 0,
            "byteLength" : 288,
            "byteOffset" : 1152
        },
        {
            "buffer" : 0,
            "byteLength" : 288,
            "byteOffset" : 1440
        },
        {
            "buffer" : 0,
            "byteLength" : 288,
            "byteOffset" : 1728
        },
        {
            "buffer" : 0,
            "byteLength" : 144,
            "byteOffset" : 2016
        },
        {
            "buffer" : 0,
            "byteLength" : 15933,
            "byteOffset" : 2160
        },
        {
            "buffer" : 0,
            "byteLength" : 719449,
            "byteOffset" : 18096
        },
        {
            "buffer" : 0,
            "byteLength" : 14352,
            "byteOffset" : 737548
        },
        {
            "buffer" : 0,
            "byteLength" : 14352,
            "byteOffset" : 751900
        },
        {
            "buffer" : 0,
            "byteLength" : 3528,
            "byteOffset" : 766252
        },
        {
            "buffer" : 0,
            "byteLength" : 70935,
            "byteOffset" : 769780
        }
    ],
    "samplers" : [
        {
            "magFilter" : 9729,
            "minFilter" : 9987
        }
    ],
    "buffers" : [
        {
            "byteLength" : 840716,
            "uri" : "data:application/octet-stream;base64,"
        }
    ]
}
