{
    "asset" : {
        "generator" : "Khronos glTF Blender I/O v3.2.43",
        "version" : "2.0"
    },
    "scene" : 0,
    "scenes" : [
        {
            "name" : "Scene",
            "nodes" : [
                7,
                8
            ]
        }
    ],
    "nodes" : [
        {
            "mesh" : 0,
            "name" : "Sphere 3",
            "rotation" : [
                -0.44752106070518494,
                -0.3669644892215729,
                -0.04240778833627701,
                0.8144099712371826
            ],
            "scale" : [
                4.120755195617676,
                4.120754718780518,
                4.120754718780518
            ],
            "translation" : [
                7.172216415405273,
                123.94922637939453,
                -37.71779251098633
            ]
        },
        {
            "mesh" : 1,
            "name" : "Sphere 4",
            "rotation" : [
                0.46624860167503357,
                0.16089986264705658,
                -0.8697765469551086,
                0.014567069709300995
            ],
            "scale" : [
                -4.261713981628418,
                -4.261714935302734,
                -4.261715412139893
            ],
            "translation" : [
                13.614818572998047,
                102.02291870117188,
                -21.745126724243164
            ]
        },
        {
            "name" : "Node_9",
            "translation" : [
                0.0007884640945121646,
                -0.00048828125,
                -56.33349609375
            ]
        },
        {
            "children" : [
                2
            ],
            "name" : "Directional_Light",
            "rotation" : [
                -0.40628406405448914,
                0.12301294505596161,
                -0.26237887144088745,
                0.8665785789489746
            ],
            "translation" : [
                11266.861328125,
                16900.29296875,
                16900.29296875
            ]
        },
        {
            "name" : "Node_10",
            "translation" : [
                2853.3115234375,
                -1788.745849609375,
                56334.3046875
            ]
        },
        {
            "children" : [
                3,
                4
            ],
            "name" : "Node_4",
            "scale" : [
                0.009999999776482582,
                0.009999999776482582,
                0.009999999776482582
            ],
            "translation" : [
                0,
                0,
                -7.62939453125e-06
            ]
        },
        {
            "children" : [
                5
            ],
            "name" : "test",
            "translation" : [
                -24,
                40.66825866699219,
                -83.93061828613281
            ]
        },
        {
            "children" : [
                0,
                1,
                6
            ],
            "name" : "Node_0",
            "scale" : [
                0.009999999776482582,
                0.009999999776482582,
                0.009999999776482582
            ]
        },
        {
            "mesh" : 2,
            "name" : "Cube_2"
        }
    ],
    "materials" : [
        {
            "doubleSided" : true,
            "name" : "Material.002",
            "pbrMetallicRoughness" : {
                "baseColorTexture" : {
                    "index" : 0
                },
                "metallicFactor" : 0,
                "roughnessFactor" : 0.5
            }
        },
        {
            "doubleSided" : true,
            "name" : "Material.003",
            "pbrMetallicRoughness" : {
                "baseColorTexture" : {
                    "index" : 1
                },
                "metallicFactor" : 0,
                "roughnessFactor" : 0.5
            }
        },
        {
            "doubleSided" : true,
            "name" : "Material.009",
            "pbrMetallicRoughness" : {
                "baseColorTexture" : {
                    "index" : 2
                },
                "metallicFactor" : 0,
                "roughnessFactor" : 0.5
            }
        }
    ],
    "meshes" : [
        {
            "name" : "Mesh_6",
            "primitives" : [
                {
                    "attributes" : {
                        "POSITION" : 0,
                        "NORMAL" : 1
                    },
                    "indices" : 2,
                    "material" : 0
                }
            ]
        },
        {
            "name" : "Mesh_8",
            "primitives" : [
                {
                    "attributes" : {
                        "POSITION" : 3,
                        "NORMAL" : 4
                    },
                    "indices" : 5,
                    "material" : 1
                }
            ]
        },
        {
            "name" : "Mesh_2",
            "primitives" : [
                {
                    "attributes" : {
                        "POSITION" : 6,
                        "NORMAL" : 7,
                        "TEXCOORD_0" : 8
                    },
                    "indices" : 9,
                    "material" : 2
                }
            ]
        }
    ],
    "textures" : [
        {
            "sampler" : 0,
            "source" : 0
        },
        {
            "sampler" : 0,
            "source" : 0
        },
        {
            "sampler" : 0,
            "source" : 1
        }
    ],
    "images" : [
        {
            "bufferView" : 3,
            "mimeType" : "image/png",
            "name" : "claytexture"
        },
        {
            "bufferView" : 11,
            "mimeType" : "image/jpeg",
            "name" : "woodentexture"
        }
    ],
    "accessors" : [
        {
            "bufferView" : 0,
            "componentType" : 5126,
            "count" : 4854,
            "max" : [
                11.644373893737793,
                10.245613098144531,
                20.604679107666016
            ],
            "min" : [
                -15.316144943237305,
                -12.051499366760254,
                -20.47393226623535
            ],
            "type" : "VEC3"
        },
        {
            "bufferView" : 1,
            "componentType" : 5126,
            "count" : 4854,
            "type" : "VEC3"
        },
        {
            "bufferView" : 2,
            "componentType" : 5123,
            "count" : 5904,
            "type" : "SCALAR"
        },
        {
            "bufferView" : 4,
            "componentType" : 5126,
            "count" : 5864,
            "max" : [
                10.009452819824219,
                22.973560333251953,
                11.806017875671387
            ],
            "min" : [
                -26.40506362915039,
                -11.31046199798584,
                -9.614710807800293
            ],
            "type" : "VEC3"
        },
        {
            "bufferView" : 5,
            "componentType" : 5126,
            "count" : 5864,
            "type" : "VEC3"
        },
        {
            "bufferView" : 6,
            "componentType" : 5123,
            "count" : 5904,
            "type" : "SCALAR"
        },
        {
            "bufferView" : 7,
            "componentType" : 5126,
            "count" : 24,
            "max" : [
                5633.4306640625,
                845.0146484375,
                5633.4306640625
            ],
            "min" : [
                -5633.4306640625,
                -845.0146484375,
                -5633.4306640625
            ],
            "type" : "VEC3"
        },
        {
            "bufferView" : 8,
            "componentType" : 5126,
            "count" : 24,
            "type" : "VEC3"
        },
        {
            "bufferView" : 9,
            "componentType" : 5126,
            "count" : 24,
            "type" : "VEC2"
        },
        {
            "bufferView" : 10,
            "componentType" : 5123,
            "count" : 36,
            "type" : "SCALAR"
        }
    ],
    "bufferViews" : [
        {
            "buffer" : 0,
            "byteLength" : 58248,
            "byteOffset" : 0
        },
        {
            "buffer" : 0,
            "byteLength" : 58248,
            "byteOffset" : 58248
        },
        {
            "buffer" : 0,
            "byteLength" : 11808,
            "byteOffset" : 116496
        },
        {
            "buffer" : 0,
            "byteLength" : 262041,
            "byteOffset" : 128304
        },
        {
            "buffer" : 0,
            "byteLength" : 70368,
            "byteOffset" : 390348
        },
        {
            "buffer" : 0,
            "byteLength" : 70368,
            "byteOffset" : 460716
        },
        {
            "buffer" : 0,
            "byteLength" : 11808,
            "byteOffset" : 531084
        },
        {
            "buffer" : 0,
            "byteLength" : 288,
            "byteOffset" : 542892
        },
        {
            "buffer" : 0,
            "byteLength" : 288,
            "byteOffset" : 543180
        },
        {
            "buffer" : 0,
            "byteLength" : 192,
            "byteOffset" : 543468
        },
        {
            "buffer" : 0,
            "byteLength" : 72,
            "byteOffset" : 543660
        },
        {
            "buffer" : 0,
            "byteLength" : 148642,
            "byteOffset" : 543732
        }
    ],
    "samplers" : [
        {
            "magFilter" : 9729,
            "minFilter" : 9987
        }
    ],
    "buffers" : [
        {
            "byteLength" : 692376,
            "uri" : "data:application/octet-stream;base64,"
        }
    ]
}
